<svg width="30" height="40" viewBox="0 0 30 40" fill="none" xmlns="http://www.w3.org/2000/svg">
<g filter="url(#filter0_d_12590_53252)">
<circle cx="15" cy="34" r="2" fill="#141414"/>
<rect x="14" y="3" width="2" height="32" rx="1" fill="#484A4D"/>
<path d="M22.5 0.5C25.2614 0.5 27.5 2.73858 27.5 5.5V20.5C27.5 23.2614 25.2614 25.5 22.5 25.5H7.5C4.73858 25.5 2.5 23.2614 2.5 20.5V5.5C2.5 2.73858 4.73858 0.5 7.5 0.5H22.5Z" fill="#141414"/>
<path d="M22.5 0.5C25.2614 0.5 27.5 2.73858 27.5 5.5V20.5C27.5 23.2614 25.2614 25.5 22.5 25.5H7.5C4.73858 25.5 2.5 23.2614 2.5 20.5V5.5C2.5 2.73858 4.73858 0.5 7.5 0.5H22.5Z" stroke="white"/>
<g clip-path="url(#clip0_12590_53252)">
<path d="M17.6516 17.6667C16.3788 17.3612 15.2548 18.4717 15.564 19.7289C15.7094 20.3201 16.2004 20.8052 16.7989 20.9488C18.0717 21.2543 19.1958 20.1439 18.8865 18.8866C18.7411 18.2953 18.2501 17.8104 17.6516 17.6667ZM-4.72637 17.6667C-5.99916 17.3612 -7.12322 18.4717 -6.81399 19.7289C-6.66856 20.3201 -6.17763 20.8052 -5.57906 20.9488C-4.30627 21.2543 -3.18222 20.1439 -3.49144 18.8866C-3.63685 18.2953 -4.12781 17.8104 -4.72637 17.6667ZM22.1296 13.2199L20.2529 12.3363C20.052 12.2416 19.8744 12.1048 19.7327 11.9352L16.4538 8.01096C15.3897 6.73746 13.8055 6 12.1339 6H-9.90743C-10.7182 6 -11.3876 6.62608 -11.4323 7.4258L-11.9978 16.5685C-12.0334 17.2098 -11.635 17.7972 -11.0205 18.0084L-8.76238 18.7844C-8.47697 18.8825 -8.18126 18.7141 -8.09414 18.4282C-7.98546 18.0716 -7.8099 17.7343 -7.57009 17.4331C-6.9826 16.6948 -6.10137 16.2711 -5.15279 16.2711C-4.90312 16.2711 -4.65147 16.3013 -4.40513 16.3604C-3.31234 16.6225 -2.43464 17.4891 -2.16881 18.5688C-2.14669 18.6589 -2.12885 18.7493 -2.11512 18.8395C-2.07652 19.0939 -1.8656 19.2869 -1.60527 19.2869H13.5504C13.8541 19.2869 14.1245 19.0417 14.18 18.7467C14.4472 17.3253 15.7101 16.2459 17.2253 16.2459C18.7276 16.2459 19.9794 17.3079 20.2606 18.7116C20.323 19.0231 20.6282 19.2286 20.9487 19.2038L22.1017 19.1145C22.6088 19.0752 23 18.6572 23 18.1548V14.5822C23 14.0003 22.6614 13.4703 22.1296 13.2199ZM9.57691 13.1979C9.57691 13.5865 9.2581 13.9014 8.86481 13.9014H-4.77943C-5.17283 13.9014 -5.49178 13.5862 -5.49178 13.1977V9.26519C-5.49178 8.87665 -5.17294 8.56176 -4.77968 8.56176H8.86467C9.25805 8.56176 9.57691 8.87676 9.57691 9.2653V13.1979ZM17.476 13.0158H13.303C12.5087 13.0158 11.8649 12.3797 11.8649 11.5951V9.29889C11.8649 8.89175 12.199 8.56176 12.6111 8.56176H14.9857C15.2083 8.56176 15.4192 8.6599 15.5609 8.8295L18.0514 11.8095C18.4531 12.2901 18.107 13.0158 17.476 13.0158Z" fill="white"/>
</g>
</g>
<defs>
<filter id="filter0_d_12590_53252" x="0" y="0" width="30" height="40" filterUnits="userSpaceOnUse" color-interpolation-filters="sRGB">
<feFlood flood-opacity="0" result="BackgroundImageFix"/>
<feColorMatrix in="SourceAlpha" type="matrix" values="0 0 0 0 0 0 0 0 0 0 0 0 0 0 0 0 0 0 127 0" result="hardAlpha"/>
<feOffset dy="2"/>
<feGaussianBlur stdDeviation="1"/>
<feComposite in2="hardAlpha" operator="out"/>
<feColorMatrix type="matrix" values="0 0 0 0 0 0 0 0 0 0 0 0 0 0 0 0 0 0 0.4 0"/>
<feBlend mode="normal" in2="BackgroundImageFix" result="effect1_dropShadow_12590_53252"/>
<feBlend mode="normal" in="SourceGraphic" in2="effect1_dropShadow_12590_53252" result="shape"/>
</filter>
<clipPath id="clip0_12590_53252">
<rect width="16" height="18" fill="white" transform="translate(7 4)"/>
</clipPath>
</defs>
</svg>
